
<svg xmlns="http://www.w3.org/2000/svg" xmlns:xlink="http://www.w3.org/1999/xlink" viewBox="0 0 235.74 32.29"><defs><linearGradient id="a" x1="12.05" y1="745.03" x2="14.07" y2="745.03" gradientTransform="matrix(24, 0, 0, -15.98, -23, 12288.5)" gradientUnits="userSpaceOnUse"><stop offset="0" stop-color="#ff4f42"/><stop offset="1" stop-color="#ff8e3c"/></linearGradient></defs><title>Airwallex logo - Brandlogos.net</title><path d="M469.19,382.72c3,0,4.13,1.82,4.29,3.41a.17.17,0,0,1-.17.19h-8.19a.17.17,0,0,1-.17-.2,4.08,4.08,0,0,1,4.24-3.4Zm4.49,10.09a.34.34,0,0,0-.28.14,4.27,4.27,0,0,1-3.73,1.68,4.65,4.65,0,0,1-4.85-3.92.17.17,0,0,1,.17-.19H479.7a13.58,13.58,0,0,0,.13-2c0-6.85-4.09-10.92-10.72-10.92-5.55,0-10.68,4.37-10.68,11.22a10.87,10.87,0,0,0,11.15,11.35c5.33,0,8.71-3,9.8-6.58,0,0,0-.16.08-.35a.34.34,0,0,0-.34-.41Zm13-4.11-7-9.93a.34.34,0,0,1,.28-.54h6.86a.35.35,0,0,1,.29.16l3.58,5.45a.17.17,0,0,0,.29,0l3.5-5.44a.34.34,0,0,1,.29-.16h6.46a.34.34,0,0,1,.28.54l-6.88,9.67a.34.34,0,0,0,0,.39c2.25,3.2,4.83,6.9,7.14,10.14a.34.34,0,0,1-.28.54h-6.81a.35.35,0,0,1-.29-.15l-3.72-5.63a.17.17,0,0,0-.29,0c-1.11,1.65-2.57,4-3.67,5.63a.34.34,0,0,1-.29.15h-6.35a.34.34,0,0,1-.28-.54l6.85-9.89a.34.34,0,0,0,0-.39Zm-37,10.47V368.84a.34.34,0,0,1,.34-.34h5.85a.34.34,0,0,1,.34.34v30.32a.34.34,0,0,1-.34.34h-5.85a.34.34,0,0,1-.34-.34Zm-9.64,0V368.84a.34.34,0,0,1,.34-.34h5.85a.34.34,0,0,1,.34.34v30.32a.34.34,0,0,1-.34.34h-5.85a.34.34,0,0,1-.34-.34Zm-14.48-4.67c2.63,0,4.86-2.06,4.86-5.65s-2.2-5.61-4.86-5.61-4.91,1.93-4.91,5.61c0,3.51,2.2,5.65,4.91,5.65Zm4.91,2.27a6.09,6.09,0,0,1-5.77,3.34c-6.28,0-10.63-4.75-10.63-11.31,0-6.34,4.09-11.22,10.42-11.22,3.83,0,5.51,2.1,5.94,3.08v-2.1a.34.34,0,0,1,.34-.34h5.64a.34.34,0,0,1,.34.34v20.6a.34.34,0,0,1-.34.34h-5.63a.34.34,0,0,1-.34-.35c0-.77,0-2.56,0-2.39Zm-30.36-18.31,3.92,11.87a.17.17,0,0,0,.33,0l3.35-11.84a.34.34,0,0,1,.33-.25h5.69a.34.34,0,0,1,.33.44l-6.42,20.6a.34.34,0,0,1-.33.24h-6a.34.34,0,0,1-.33-.23l-4.41-13a.17.17,0,0,0-.33,0l-4.32,13a.34.34,0,0,1-.33.23h-6.13a.34.34,0,0,1-.33-.24l-6.5-20.6a.34.34,0,0,1,.33-.45h6.07a.34.34,0,0,1,.33.25l3.35,11.81a.17.17,0,0,0,.33,0l4-11.83a.34.34,0,0,1,.33-.23h6.43a.34.34,0,0,1,.33.24Zm-23.24,5.77a.34.34,0,0,1-.4.34,9.48,9.48,0,0,0-1.66-.13c-2.63,0-5,1.54-5,5.78v9a.34.34,0,0,1-.34.34h-5.85a.34.34,0,0,1-.34-.34v-20.6a.34.34,0,0,1,.34-.34h5.64a.34.34,0,0,1,.34.34v2.53c1.12-2.4,3.83-3.08,5.55-3.08a7.07,7.07,0,0,1,1.45.15.34.34,0,0,1,.27.33Zm-23.37,14.94v-20.6a.34.34,0,0,1,.34-.34h5.85a.34.34,0,0,1,.34.34v20.6a.34.34,0,0,1-.34.34h-5.85a.34.34,0,0,1-.34-.34Zm3.23-31.26a3.81,3.81,0,1,1-3.79,3.81,3.84,3.84,0,0,1,3.79-3.81ZM332.7,387.17h6.92a.17.17,0,0,0,.16-.23l-3.42-9.8a.17.17,0,0,0-.32,0l-3.5,9.8a.17.17,0,0,0,.16.23Zm9.07,6.17H330.46a.34.34,0,0,0-.32.23l-2,5.71a.34.34,0,0,1-.32.23h-6.4a.34.34,0,0,1-.32-.46l11.23-29.68a.34.34,0,0,1,.32-.22H340a.34.34,0,0,1,.32.22L351.44,399a.34.34,0,0,1-.32.46h-6.66a.34.34,0,0,1-.32-.23l-2-5.71a.34.34,0,0,0-.32-.23Z" transform="translate(-266.13 -367.85)" style="fill:#080808"/><path d="M312.76,380.53a6,6,0,0,1,1.42,6.42L311,395.53A6.89,6.89,0,0,1,306,400a6.8,6.8,0,0,1-1.3.13,6.58,6.58,0,0,1-5.08-2.4l-19-22.69a.42.42,0,0,0-.71.12l-6.17,16.67a.42.42,0,0,0,.55.54l7.57-3.09a3.34,3.34,0,0,1,4.44,2.08,3.47,3.47,0,0,1-2,4.24l-9.89,4a5.93,5.93,0,0,1-7.88-7.56l7.29-19.68a6.84,6.84,0,0,1,11.68-2l10.88,13,10-4.08A5.84,5.84,0,0,1,312.76,380.53ZM307,387.07a.42.42,0,0,0-.55-.54l-5.53,2.26,3.32,4a.42.42,0,0,0,.71-.13Z" transform="translate(-266.13 -367.85)" style="fill:url(#a)"/></svg>
