<svg xmlns="http://www.w3.org/2000/svg" viewBox="0 0 522.84 138.03" xmlns:xlink="http://www.w3.org/1999/xlink">
 <defs>
  <style>
   .cls-1{fill:#d2d2d1;}.cls-2{fill:#cd2027;}
  </style>
 </defs>
 <title>
  Gray_logo2
 </title>
 <g id="Layer_2" data-name="Layer 2">
  <g id="Layer_1-2" data-name="Layer 1">
   <path class="cls-1" d="M64.12,137.36c0-4.67-5.42-53.44-5.5-58.93h-.3v.31c-2.86,11.3-9.5,48.45-12.52,58.62-5.7.29-10.69.29-15.88.31-2.55-14.59-8.81-41.32-12.21-61.07C17.76,82.09,15,133,14.05,138c-2.75,0-12.42-.34-14-.3C0,101.29,3.9,17.35,7.94.57H23.21v.61L38.47,74.77h.31c0-.61,12-61.94,16.79-73.59a75.15,75.15,0,0,1,12.18-.06c1.53,11,14.19,129.33,12.55,135.94C79.39,137.06,66.81,137.4,64.12,137.36Zm30-137c8.6-.34,30.18-1.32,32.88,2,4.88,6,6.86,98.81,1.55,130.33-.74,1.62-1.6,2.73-4.6,3.33-7.71,1.52-21.3,1.27-28.89.47-3.94-.51-5.88-.93-7.14-4.44-1.42-1.61-4-55.13-4-61.6,0-22.77-.67-47.15,3.66-65.95C88.53,2.54,88.88.89,94.14.4Zm54,.17H164c2.95,0,6.71-.25,9.16.31,3.15.72,6.32.27,7.32,3.05,1.31,2.08,4,47.74,4,53.13v6.1c.76,3.59-.6,57.42-4.27,71.45a17.33,17.33,0,0,1-4.89,2.75c-4.15,1.18-20.61.62-24.73-.3-4.46-1-9-.68-10.38-4.58-1.84-2.45-3.66-59.13-3.67-70.54,0-5.79.67-42.9,1.53-46.71.82-3.64,1.6-7.78,2.44-11a31.66,31.66,0,0,1,3.67-2.45C145.46,1.23,147.05,1.39,148.09.57Zm44.58,0C197.41.49,203.47.36,207,1.79c7.45,23.27,20.52,85.53,22,87.6,0-6-.31-28.45-.51-37.22-.1-5.19-.27-46,.78-51.6h7a34,34,0,0,1,7.68.75c.85.29,1.6.51,1.48,2.3.5,7.31-.78,31.44-.78,37.26,0,18.69-1.93,88.94-2,96.18l-18.32-.61c-5.82-13.49-17.91-64-18.62-65l-.92,65.34c-4.94,0-9.34.59-14.66.61C189.27,129.17,192.06,18.79,192.67.57Zm-85,24.24c-2.14.17-3.66.63-4.15,1.41-1.56,2.46-1.22,41.83-1.22,49.16s.3,30,.3,33c.21,1,.1,10.17,1.83,11.61,1.32,1.05,5.26.69,7,.3,3.2-5.09,2.44-48.14,2.44-58.93,0-5.23-.43-31.32-1.22-34.81C110.73,25.24,111.25,24.77,107.66,24.81Zm52-.12c-1.31.81-2.66.37-3.36,1.83-1.15,1.36-1.22,14.77-1.22,19.24,0,1.73-.85,30,0,33.89,0,3.87-.56,31.65,1.22,40,1.71,1,4.42,1,7.33.92l1.83-2.14c2.29-5.16,1.22-36.88,1.22-44.27,0-8.47,0-41.68-1.52-47.94A8.3,8.3,0,0,0,159.69,24.69Z">
   </path>
   <path class="cls-2" d="M303.31,136.36c-3,.44-13.59,1.27-15-.61-1.2-5.85-3.35-32.89-4.28-38.47-1.07-.7-10.93,0-12.82,0-1.28,16.09-2.35,24.25-3.36,38.78a5.32,5.32,0,0,0-1.22.91c-3.27.22-13.34.92-14.66-1.22s10.38-96.19,11.3-102.29c1.73-11.52,3.51-21.54,5.8-31.14,4.3-2.55,11.62-2.13,16.79-.92,4.25,1.43,10.05,57.88,12.22,75.42C298.32,79.87,303.27,130,303.31,136.36ZM516.43.18c.21,3.06,0,14.22,0,16.8-7.43.35-15.68-.4-15.88,1.52-.3,4.83,0,12.44,0,16.49l-.61,40a73.74,73.74,0,0,1,14.66.92,121.71,121.71,0,0,1,.31,19.54c.09,1.38-8.16.63-15.27.91-.05,6.66-.3,14.25-.31,21.38l22-.31c.21,6.2,1.46,11.92,1.52,18.93-7.57.22-32.36,1.76-34.5.31-3.23-2.2-3-6.25-3-11,0-62.6,2.21-99.6,4.27-124C491,1.23,511.42.17,516.43.18Zm-135,24.12c.14,37.34,1.56,73.62,1.53,110.54-1.83.61-13.84,1.42-18,1.22l-.31-.92c-.87-1.35-1.83-30.74-1.83-33.89,0-6.11.2-57.2.3-76.64l-13.74-.31c-.13-2.63-1.07-5.42-1.22-7.93A60.59,60.59,0,0,1,349.72.49c3.87,0,37.81.94,45.8.91,1.26,3.66,1.74,19.71-.31,22.29C393.78,24.62,383.11,24.34,381.47,24.3ZM422.39.49a246,246,0,0,1-2.14,33.89c-4.74,0-9.84,0-14.65,0-.64-12.19-1.76-21.6-1.84-33.28C405.8.41,420.17.45,422.39.49Zm58,1.83L464.22,135.45c-.39,1.85-2.64,1.66-14.05,1.52l-7-.3c-7.23-46.76-14.23-113.76-14-134.35A98.34,98.34,0,0,1,443.46,2c.79,12.24,8.79,84.9,9.77,93.13,0-4.16,8-72.89,11.6-93.13a5.16,5.16,0,0,1,3.36-.61C472.61,1.64,479.52,1.64,480.4,2.32Zm-156,20.46c-.1,6.8,1.47,57.38,1.83,64.73.54,8.86,1.7,26.93,2.44,32.06,2.75,0,14.81.34,17.1.3.72,5.65-.22,11.24-1.22,15.88-.42,1.12-8.35.59-15.73.59-7.84,0-12.18-.07-16.64-.28-.28-.33,0,0-.3-.31-1.27-13.84-2.61-36.17-3.67-49.16-1-18-1.46-73.78-1.22-77.25.52-7.53,1.92-7.93,11.38-7.94,3.42,0,18-.5,20.07.92,6.21,4.2,2.43,15.17.92,21.37C337.81,23.69,326.37,23,324.38,22.78ZM272.77,78.35a87.31,87.31,0,0,1,9.47-.61v-.61c.69-.79-1.24-29.31-3.05-37.86-1.49-.16-1.71,1.13-1.92,1.13A355.23,355.23,0,0,0,272.77,78.35ZM413.56,43.87c4.53-.12,5,.73,7.61,2.11.51,8.14.8,27.6,1.13,41.22.23,18.52.8,32.37.7,48.55h-.61c-2.74,1.82-15.13.13-16.79-1.22-1.07-1.69-.92-19-.92-24.73,0-22,1-43.21,1.22-64.12A51.81,51.81,0,0,1,413.56,43.87Z">
   </path>
  </g>
 </g>
</svg>
