<svg width="114" height="58" viewBox="0 0 114 58" fill="none" xmlns="http://www.w3.org/2000/svg">
<path fill-rule="evenodd" clip-rule="evenodd" d="M32.5849 52.5411L42.0834 48.3362L42.0877 51.9762L32.5848 54.55L32.5849 52.5411Z" fill="#3CA5EE"/>
<path fill-rule="evenodd" clip-rule="evenodd" d="M56.5817 41.9179L47.1305 46.1019L47.1337 50.6095L56.5753 48.0524L56.5817 41.9179Z" fill="#3CA5EE"/>
<path fill-rule="evenodd" clip-rule="evenodd" d="M77.8934 42.8764C71.6694 44.5621 66.9573 42.516 64.025 38.6228L74.871 33.8215C75.9115 34.1146 77.1214 34.1188 78.4959 33.7466C80.2738 33.265 81.904 32.2258 83.1738 30.8191L83.2053 40.1093C81.7186 41.4418 79.9166 42.3284 77.8934 42.8764Z" fill="#3CA5EE"/>
<path fill-rule="evenodd" clip-rule="evenodd" d="M95.7857 24.5627C96.5041 27.247 98.4638 28.8699 100.885 28.2142C103.399 27.5334 104.705 25.5192 105.441 22.5965L114 19.091C113.716 27.5725 108.26 34.7184 102.129 36.3788C94.6141 38.4143 89.3498 34.945 87.0757 28.4186L95.7857 24.5627Z" fill="#3CA5EE"/>
<path fill-rule="evenodd" clip-rule="evenodd" d="M28.5081 48.3054C28.6636 47.4695 28.7418 46.5986 28.737 45.6956C28.7156 37.5066 23.022 34.2878 18.1779 31.5492C14.5808 29.5157 11.4521 27.7469 11.462 24.4044C11.4477 22.6149 12.4559 21.2127 14.1725 20.7478C17.1767 19.9342 18.4228 22.652 18.4648 27.0243L28.1067 24.4793C27.4182 12.7103 19.4958 10.3395 12.2613 12.2988C5.63995 14.0921 1.25887 19.131 1.24629 25.7764C1.19084 33.3831 6.58854 36.6492 11.3157 39.5095C14.9841 41.7292 18.2487 43.7046 18.2475 47.2746C18.2127 48.8781 17.315 50.4496 15.2918 50.9976C11.552 52.0105 9.93357 49.1278 9.80945 44.4457L0 47.1024C0.290831 52.0527 2.05235 55.8197 5.01192 58L28.5081 48.3054Z" fill="#3CA5EE"/>
<path fill-rule="evenodd" clip-rule="evenodd" d="M52.4512 11.1775C49.631 11.9413 47.1555 10.2871 46.7228 7.4154C46.1466 4.25048 48.371 0.991243 51.3139 0.194211C54.1954 -0.586217 56.7323 1.05138 57.165 3.92306C57.6798 7.10459 55.4554 10.3638 52.4512 11.1775ZM47.1089 15.8125L56.6118 13.2388L56.5872 36.7198L47.1266 40.6233L47.1089 15.8125Z" fill="#3CA5EE"/>
<path fill-rule="evenodd" clip-rule="evenodd" d="M32.5871 4.73481L42.0287 2.17767L42.0767 42.7069L32.5852 46.6231L32.5871 4.73481Z" fill="#3CA5EE"/>
<path fill-rule="evenodd" clip-rule="evenodd" d="M71.2534 30.6684L61.8304 34.5564C60.9702 32.2516 60.5302 29.661 60.539 26.9866C60.5296 19.0188 64.3914 10.5339 74.0169 7.92697C77.0824 7.09673 80.7128 6.9105 83.2124 8.15968L83.199 17.5284C81.2391 16.3323 78.8469 15.984 76.6398 16.5817C72.2255 17.7773 70.2639 22.028 70.2074 26.0285C70.2193 27.7095 70.572 29.3301 71.2534 30.6684Z" fill="#3CA5EE"/>
<path fill-rule="evenodd" clip-rule="evenodd" d="M85.86 21.8557C85.909 22.7784 85.9995 23.6711 86.1302 24.5302L113.611 13.1914C112.57 4.4367 107.147 -1.1787 98.2035 1.24355C90.1107 3.43539 85.3161 11.3759 85.86 21.8557ZM99.4436 9.14371C96.6847 9.89092 95.1138 12.641 95.1514 16.7489L104.173 13.2548C104.004 9.88332 102.202 8.39649 99.4436 9.14371Z" fill="#3CA5EE"/>
</svg>
